<mxfile host="Electron" agent="Mozilla/5.0 (Macintosh; Intel Mac OS X 10_15_7) AppleWebKit/537.36 (KHTML, like Gecko) draw.io/26.1.1 Chrome/132.0.6834.210 Electron/34.3.3 Safari/537.36" version="26.1.1">
  <diagram name="Page-1" id="4bTWGJCxwV2r7xIr8A9E">
    <mxGraphModel dx="984" dy="656" grid="1" gridSize="10" guides="1" tooltips="1" connect="1" arrows="1" fold="1" page="1" pageScale="1" pageWidth="827" pageHeight="1169" math="0" shadow="0">
      <root>
        <mxCell id="0" />
        <mxCell id="1" parent="0" />
        <mxCell id="goMDMj7xH7555VtS0r5T-2" value="" style="rounded=0;whiteSpace=wrap;html=1;" vertex="1" parent="1">
          <mxGeometry x="320" y="320" width="200" height="440" as="geometry" />
        </mxCell>
        <mxCell id="goMDMj7xH7555VtS0r5T-3" value="" style="ellipse;whiteSpace=wrap;html=1;" vertex="1" parent="1">
          <mxGeometry x="340" y="330" width="100" height="50" as="geometry" />
        </mxCell>
        <mxCell id="goMDMj7xH7555VtS0r5T-4" value="" style="ellipse;whiteSpace=wrap;html=1;" vertex="1" parent="1">
          <mxGeometry x="400" y="380" width="100" height="50" as="geometry" />
        </mxCell>
        <mxCell id="goMDMj7xH7555VtS0r5T-6" value="" style="ellipse;whiteSpace=wrap;html=1;" vertex="1" parent="1">
          <mxGeometry x="340" y="440" width="100" height="50" as="geometry" />
        </mxCell>
        <mxCell id="goMDMj7xH7555VtS0r5T-7" value="" style="ellipse;whiteSpace=wrap;html=1;" vertex="1" parent="1">
          <mxGeometry x="400" y="490" width="100" height="50" as="geometry" />
        </mxCell>
        <mxCell id="goMDMj7xH7555VtS0r5T-8" value="" style="ellipse;whiteSpace=wrap;html=1;" vertex="1" parent="1">
          <mxGeometry x="340" y="540" width="100" height="50" as="geometry" />
        </mxCell>
        <mxCell id="goMDMj7xH7555VtS0r5T-9" value="" style="ellipse;whiteSpace=wrap;html=1;" vertex="1" parent="1">
          <mxGeometry x="400" y="590" width="100" height="50" as="geometry" />
        </mxCell>
        <mxCell id="goMDMj7xH7555VtS0r5T-10" value="" style="ellipse;whiteSpace=wrap;html=1;" vertex="1" parent="1">
          <mxGeometry x="340" y="650" width="100" height="50" as="geometry" />
        </mxCell>
        <mxCell id="goMDMj7xH7555VtS0r5T-11" value="" style="ellipse;whiteSpace=wrap;html=1;" vertex="1" parent="1">
          <mxGeometry x="400" y="700" width="100" height="50" as="geometry" />
        </mxCell>
        <mxCell id="goMDMj7xH7555VtS0r5T-12" value="Actor" style="shape=umlActor;verticalLabelPosition=bottom;verticalAlign=top;html=1;outlineConnect=0;" vertex="1" parent="1">
          <mxGeometry x="40" y="340" width="30" height="60" as="geometry" />
        </mxCell>
        <mxCell id="goMDMj7xH7555VtS0r5T-13" value="Actor" style="shape=umlActor;verticalLabelPosition=bottom;verticalAlign=top;html=1;outlineConnect=0;" vertex="1" parent="1">
          <mxGeometry x="40" y="460" width="30" height="60" as="geometry" />
        </mxCell>
        <mxCell id="goMDMj7xH7555VtS0r5T-14" value="Actor" style="shape=umlActor;verticalLabelPosition=bottom;verticalAlign=top;html=1;outlineConnect=0;" vertex="1" parent="1">
          <mxGeometry x="200" y="420" width="30" height="60" as="geometry" />
        </mxCell>
        <mxCell id="goMDMj7xH7555VtS0r5T-15" value="Actor" style="shape=umlActor;verticalLabelPosition=bottom;verticalAlign=top;html=1;outlineConnect=0;" vertex="1" parent="1">
          <mxGeometry x="200" y="540" width="30" height="60" as="geometry" />
        </mxCell>
        <mxCell id="goMDMj7xH7555VtS0r5T-16" value="Actor" style="shape=umlActor;verticalLabelPosition=bottom;verticalAlign=top;html=1;outlineConnect=0;" vertex="1" parent="1">
          <mxGeometry x="40" y="580" width="30" height="60" as="geometry" />
        </mxCell>
      </root>
    </mxGraphModel>
  </diagram>
</mxfile>
